<?xml version="1.0" standalone="no"?>
<!DOCTYPE svg PUBLIC "-//W3C//DTD SVG 20010904//EN"
 "http://www.w3.org/TR/2001/REC-SVG-20010904/DTD/svg10.dtd">
<svg version="1.0" xmlns="http://www.w3.org/2000/svg"
 width="260.000000pt" height="260.000000pt" viewBox="0 0 260.000000 260.000000"
 preserveAspectRatio="xMidYMid meet">
<metadata>
Created by potrace 1.14, written by Peter Selinger 2001-2017
</metadata>
<g transform="translate(0.000000,260.000000) scale(0.100000,-0.100000)"
fill="#000000" stroke="none">
<path d="M753 1924 c-92 -15 -208 -53 -258 -84 -53 -33 -59 -59 -40 -201 52
-405 163 -905 213 -961 26 -31 216 -20 334 18 59 19 68 43 68 176 0 70 4 100
13 102 6 2 38 8 70 14 82 16 143 49 208 112 151 150 194 403 99 596 -52 106
-169 193 -307 229 -72 19 -286 18 -400 -1z m347 -363 c38 -26 62 -83 55 -125
-12 -59 -71 -106 -135 -106 -57 0 -113 112 -94 188 16 67 107 89 174 43z"/>
<path d="M1758 1838 c-37 -30 -138 -533 -138 -691 0 -50 4 -68 19 -81 29 -27
137 -57 223 -63 l76 -6 25 49 c51 101 170 514 191 659 7 51 2 58 -59 88 -102
50 -297 76 -337 45z"/>
<path d="M1640 957 c-79 -37 -120 -98 -120 -181 0 -100 69 -174 179 -192 56
-9 138 31 176 86 50 72 44 178 -13 236 -56 56 -159 80 -222 51z"/>
</g>
</svg>
